<svg xmlns="http://www.w3.org/2000/svg" width="791" height="592" fill="none" viewBox="0 0 791 592"><path fill="#fff" d="M307.932 153.501L325.57 133.09C324.085 117.663 326.711 101.643 334.047 86.7083C355.146 43.755 407.105 26.0231 450.103 47.1001C493.101 68.1772 510.852 120.085 489.753 163.035C468.653 205.988 416.695 223.72 373.697 202.643C355.745 193.84 342.211 179.655 334.053 163.001L334.063 163.05L307.932 153.501Z"/><path fill="#263238" d="M307.931 153.501C307.931 153.501 308.449 153.724 309.547 154.143C310.706 154.582 312.343 155.205 314.477 156.016C318.948 157.695 325.477 160.148 333.96 163.335C334.115 163.394 334.289 163.314 334.348 163.159C334.366 163.106 334.37 163.044 334.36 162.991L334.351 162.945L333.784 163.137C338.648 173.154 347.103 185.626 361.273 195.782C364.789 198.319 368.655 200.667 372.829 202.764C377.095 204.65 381.464 206.781 386.288 208.104C395.8 211.068 406.469 212.579 417.6 211.854C428.716 211.148 440.265 208.206 451.132 202.754C461.994 197.322 472.154 189.359 480.299 179.187C488.506 169.068 494.379 156.605 497.293 143.206C500.183 129.81 500.059 115.34 496.071 101.591L494.552 96.4276L492.58 91.4471L491.594 88.9662L490.391 86.5906L487.973 81.8671C487.114 80.3278 486.1 78.8845 485.173 77.3916C484.196 75.9328 483.362 74.381 482.218 73.0553C480.036 70.3297 478.02 67.4833 475.518 65.0891C466.037 55.0353 454.416 47.5275 442.147 42.959C429.829 38.471 416.93 36.944 404.77 37.9847C392.591 39.0068 381.16 42.5563 371.278 47.7722C361.375 52.9818 353.032 59.8485 346.446 67.3595C343.048 71.0483 340.388 75.112 337.771 78.9867C335.532 83.0937 333.195 86.9684 331.592 91.0073C324.842 107.082 324.141 122.113 325.273 133.127L325.344 132.904C319.667 139.595 315.289 144.755 312.291 148.285C310.868 149.98 309.77 151.281 308.995 152.2C308.266 153.068 307.931 153.501 307.931 153.501C307.931 153.501 308.369 153.043 309.15 152.163C309.962 151.247 311.109 149.955 312.601 148.273C315.633 144.832 320.058 139.805 325.797 133.285C325.852 133.223 325.874 133.137 325.868 133.062C324.863 122.113 325.679 107.228 332.447 91.3635C334.053 87.3742 336.394 83.5552 338.624 79.507C341.231 75.6912 343.879 71.6864 347.252 68.0564C353.788 60.6662 362.048 53.9234 371.833 48.816C381.597 43.7023 392.877 40.2365 404.879 39.2577C416.862 38.2604 429.556 39.7874 441.676 44.2258C453.752 48.7448 465.178 56.1473 474.498 66.0431C476.963 68.4002 478.938 71.2063 481.087 73.8854C482.212 75.1894 483.034 76.7195 483.992 78.1536C484.9 79.6217 485.902 81.0433 486.745 82.5579L489.123 87.2069L490.308 89.5453L491.275 91.9861L493.219 96.8859L494.71 101.966C498.636 115.494 498.76 129.727 495.926 142.909C493.067 156.091 487.303 168.371 479.239 178.342C471.236 188.364 461.249 196.225 450.559 201.602C439.862 207.001 428.483 209.934 417.526 210.665C406.55 211.415 396.017 209.965 386.61 207.078C381.839 205.796 377.514 203.708 373.284 201.866C369.145 199.812 365.31 197.511 361.819 195.024C347.745 185.06 339.272 172.77 334.333 162.874C334.261 162.725 334.078 162.66 333.929 162.734C333.802 162.796 333.74 162.936 333.765 163.066L333.774 163.112L334.174 162.771C325.722 159.767 319.214 157.457 314.762 155.874C312.573 155.106 310.892 154.514 309.705 154.099C308.555 153.696 307.931 153.501 307.931 153.501Z"/><path fill="#003023" d="M411.719 181.355C440.036 181.355 462.992 158.423 462.992 130.135C462.992 101.847 440.036 78.9155 411.719 78.9155C383.401 78.9155 360.445 101.847 360.445 130.135C360.445 158.423 383.401 181.355 411.719 181.355Z"/><g opacity=".3"><path fill="#fff" d="M411.719 181.355C440.036 181.355 462.992 158.423 462.992 130.135C462.992 101.847 440.036 78.9155 411.719 78.9155C383.401 78.9155 360.445 101.847 360.445 130.135C360.445 158.423 383.401 181.355 411.719 181.355Z"/></g><path fill="#0DCB98" d="M449.861 158.602C468.703 137.488 466.844 105.113 445.708 86.2899C424.571 67.4671 392.162 69.3245 373.32 90.4387C354.477 111.553 356.337 143.928 377.473 162.751C398.609 181.574 431.018 179.716 449.861 158.602Z"/><path fill="#fff" d="M446.063 124.477C446.063 143.426 430.688 158.785 411.719 158.785C392.753 158.785 377.374 143.426 377.374 124.477C377.374 105.527 392.75 90.1679 411.719 90.1679C430.685 90.1679 446.063 105.53 446.063 124.477Z"/><path fill="#0DCB98" d="M428.523 124.477C428.523 133.75 420.998 141.267 411.715 141.267C402.432 141.267 394.908 133.75 394.908 124.477C394.908 115.203 402.432 107.686 411.715 107.686C420.998 107.689 428.523 115.206 428.523 124.477Z"/><path fill="#455A64" d="M447.455 86.9808L446.063 76.0505L457.197 64.1476L457.997 75.939L447.455 86.9808Z"/><path fill="#455A64" d="M471.354 78.2836L460.059 77.3669L448.736 88.2476L460.062 89.4555L471.354 78.2836Z"/><g opacity=".3"><path fill="#000" d="M413.963 124.232L453.169 94.3307C451.836 92.3422 450.143 90.3476 448.261 88.3498L413.963 121.568V124.232Z"/></g><path fill="#263238" d="M458.456 74.2912C453.135 79.6061 447.815 84.9241 442.494 90.2391C434.055 98.673 425.612 107.107 417.172 115.541C415.231 117.48 413.29 119.419 411.35 121.358C409.505 123.2 412.385 126.044 414.233 124.201C419.553 118.886 424.874 113.568 430.195 108.253C438.634 99.819 447.077 91.3851 455.517 82.9512C457.457 81.0123 459.398 79.0734 461.336 77.1345C463.184 75.2885 460.304 72.4452 458.456 74.2912Z"/><path fill="#263238" d="M755.545 532.954C747.403 500.187 742.064 498.375 722.531 456.773H708.027L568.711 454.354L557.307 479.597C544.657 513.633 536.009 533.957 532.45 558.853C531.073 568.476 530.971 579.546 532.044 591.598H761.337C764.859 574.603 759.058 547.09 755.545 532.954Z"/><path fill="#263238" d="M603.768 77.0013C591.9 86.5286 585.227 102.154 586.554 117.306C587.199 124.666 589.314 133.053 584.573 138.724C579.879 144.336 570.552 144.268 566.06 150.042C560.767 156.837 565.353 166.829 563.517 175.241C561.793 183.139 553.53 189.027 545.497 188.083C554.981 195.665 566.593 200.565 578.648 202.067C581.69 198.087 584.728 194.11 587.766 190.13C584.306 194.311 585.302 200.912 588.734 205.118C592.166 209.321 597.422 211.579 602.615 213.168C627.419 220.762 655.721 215.881 676.541 200.419"/><path fill="#263238" d="M743.032 140.725C741.131 135.097 737.978 129.894 736.679 124.096C733.885 111.635 739.835 97.5208 733.662 86.3396C729.268 78.3827 720.032 74.5544 711.313 71.9651C702.592 69.3758 693.237 67.1984 686.692 60.8861C681.892 56.2557 679.12 49.8443 674.336 45.1983C667.515 38.5794 657.522 36.4113 648.028 35.9219C638.277 35.4202 628.21 36.4547 619.485 40.8374C610.763 45.22 603.561 53.3597 602.094 63.0016C601.378 67.7033 602.004 72.6187 600.565 77.1531C598.984 82.1398 595.115 86.0423 592.752 90.7099C587.757 100.572 590.647 113.757 599.307 120.633L667.066 206.313C681.173 211.48 715.167 204.731 725.929 194.255C736.694 183.787 747.837 154.948 743.032 140.725Z"/><path fill="#FFBF9D" d="M600.968 109.65C603.536 90.0223 618.229 66.7122 637.753 70.1037L692.068 89.1799C698 90.2113 700.992 94.8696 700.471 100.86L688.419 242.093L623.159 253.919L623.627 236.487C624.288 224.538 624.967 213.672 624.951 213.781C624.951 213.781 600.023 207.911 597.003 174.705C595.499 158.194 598.119 131.458 600.968 109.65Z"/><path fill="#263238" d="M604.438 141.063C604.212 143.283 605.905 145.306 608.221 145.588C610.531 145.867 612.596 144.302 612.825 142.079C613.051 139.858 611.358 137.832 609.049 137.553C606.729 137.272 604.664 138.842 604.438 141.063Z"/><path fill="#263238" d="M647.07 143.383C646.841 145.603 648.537 147.626 650.853 147.908C653.166 148.186 655.228 146.619 655.457 144.398C655.684 142.178 653.991 140.152 651.681 139.873C649.362 139.591 647.297 141.162 647.07 143.383Z"/><path fill="#263238" d="M603.809 125.911C604.274 126.679 608.171 124.161 613.088 124.83C618.012 125.412 621.19 128.828 621.826 128.2C622.133 127.924 621.739 126.598 620.362 125.062C619.01 123.535 616.558 121.9 613.495 121.506C610.428 121.122 607.659 122.089 605.982 123.232C604.271 124.378 603.573 125.564 603.809 125.911Z"/><path fill="#263238" d="M647.935 129.113C648.521 129.816 652.354 126.982 657.637 127.156C662.92 127.249 666.694 130.275 667.292 129.6C667.583 129.299 667.016 128.045 665.367 126.679C663.751 125.316 660.964 123.959 657.668 123.873C654.375 123.792 651.557 125.009 649.917 126.289C648.249 127.577 647.65 128.8 647.935 129.113Z"/><path fill="#263238" d="M631.686 160.337C631.723 160.08 628.935 159.405 624.402 158.516C623.252 158.318 622.17 158.014 622.027 157.212C621.81 156.357 622.378 155.143 623.032 153.833C624.309 151.104 625.649 148.242 627.05 145.244C632.653 133.01 636.789 122.919 636.296 122.699C635.8 122.476 630.858 132.214 625.255 144.448C623.903 147.468 622.607 150.345 621.376 153.099C620.849 154.384 619.994 155.827 620.471 157.602C620.725 158.488 621.534 159.172 622.263 159.423C622.992 159.699 623.643 159.755 624.213 159.829C628.799 160.38 631.652 160.594 631.686 160.337Z"/><path fill="#FF9A6C" d="M624.951 213.784C624.951 213.784 646.984 216.689 669.788 204.994C669.788 204.994 657.169 227.313 624.455 222.035L624.951 213.784Z"/><path fill="#FF9A6C" d="M645.65 173.426C645.027 172.379 644.354 171.289 643.297 170.685C642.128 170.019 640.686 170.069 639.366 170.329C637.446 170.707 635.558 171.537 634.253 172.989C632.947 174.445 632.327 176.595 633.009 178.425C633.537 180.315 636.377 181.324 638.314 181.646C640.252 181.969 642.252 181.383 643.957 180.404C645.387 179.584 646.754 178.283 646.813 176.635C646.856 175.483 646.242 174.417 645.65 173.426Z"/><path fill="#263238" d="M644.661 167.055C643.926 166.962 643.585 171.884 639.133 175.096C634.687 178.32 629.472 177.415 629.388 178.1C629.298 178.404 630.495 179.134 632.706 179.342C634.876 179.562 638.097 179.076 640.82 177.112C643.536 175.142 644.835 172.358 645.139 170.351C645.467 168.306 644.999 167.049 644.661 167.055Z"/><path fill="#263238" d="M648.159 111.378C648.524 112.642 653.095 112.36 658.378 113.357C663.68 114.249 667.872 116.092 668.65 115.036C669 114.528 668.331 113.317 666.675 112.007C665.032 110.7 662.362 109.384 659.19 108.814C656.015 108.25 653.054 108.563 651.064 109.219C649.055 109.876 648.007 110.777 648.159 111.378Z"/><path fill="#263238" d="M606.441 109.3C607.284 110.39 610.931 109.563 615.231 109.799C619.538 109.904 623.122 111.022 624.033 110C624.436 109.501 623.931 108.433 622.409 107.349C620.908 106.274 618.341 105.301 615.38 105.184C612.422 105.069 609.802 105.831 608.236 106.785C606.639 107.745 606.072 108.77 606.441 109.3Z"/><path fill="#263238" d="M711.459 94.309C708.38 89.6724 702.902 87.3246 697.683 85.3733C675.189 76.9487 651.684 71.2125 627.835 68.3289C624.917 73.2413 627.723 79.8632 632.234 83.3755C636.746 86.8878 642.509 88.2352 647.886 90.1834C653.262 92.1347 658.784 95.1607 661.041 100.411C663.441 105.995 661.528 112.651 663.646 118.347C667.289 128.15 681.061 131.185 684.649 141.007C687.362 148.434 683.117 156.413 682.112 164.255C680.975 173.144 684.357 182.492 690.918 188.603C696.093 193.419 703.14 196.083 710.203 196.148C711.555 167.91 712.91 139.672 714.265 111.431C714.553 105.549 714.715 99.2151 711.459 94.309Z"/><path fill="#263238" d="M769.073 165.048C764.571 161.096 758.944 157.695 757.108 151.999C754.435 143.698 761.033 133.852 756.649 126.31C752.649 119.434 741.072 119.896 737.348 112.868C734.44 107.38 737.671 102.464 736.539 97.6293C735.408 92.7944 728.481 88.6131 723.551 89.2418L685.517 145.479C682.119 164.252 678.612 174.262 682.745 185.187C685.015 191.177 687.951 197.009 688.878 203.349C689.805 209.686 688.252 216.894 683.095 220.7C706.182 222.28 727.681 210.008 747.546 198.152C754.553 193.971 761.56 189.786 768.571 185.605C770.757 184.298 773.035 182.904 774.331 180.714C777.382 175.554 773.575 169 769.073 165.048Z"/><path fill="#455A64" d="M748.07 192.496C748.07 192.496 747.251 192.809 745.611 192.992C743.98 193.171 741.497 193.271 738.421 192.552C735.373 191.843 731.671 190.325 728.344 187.262C725.018 184.245 722.317 179.509 721.616 173.857C721.275 171.038 721.433 168.009 722.286 165.011C723.145 161.997 724.788 159.191 726.487 156.403C728.161 153.61 729.994 150.745 730.819 147.474C731.634 144.262 731.603 140.456 729.485 137.714C727.358 134.927 723.455 134.28 719.824 132.858C717.998 132.149 716.107 131.04 714.869 129.265C713.635 127.496 713.201 125.31 713.223 123.238C713.232 119.016 714.993 115.141 715.728 111.208C716.103 109.238 716.228 107.2 715.707 105.32C715.198 103.44 713.995 101.801 712.33 100.677C708.975 98.3324 704.725 97.9947 700.629 97.6757C696.511 97.4217 692.201 96.5359 688.704 94.2965C685.169 92.1625 682.32 89.0838 680.482 85.5653C678.658 82.0065 677.973 78.169 677.369 74.5483C676.776 70.9183 676.243 67.3873 675.006 64.2095C673.769 61.0472 671.797 58.3123 669.499 56.0946C664.805 51.7181 658.905 49.4199 653.47 49.0328C647.997 48.6239 643.049 50.1199 639.21 52.1456C635.335 54.1743 632.451 56.7079 630.393 58.9937C626.278 63.6396 625.15 67.0188 624.976 66.9104C624.954 66.9011 625.029 66.6966 625.19 66.3095C625.363 65.9285 625.577 65.3307 625.971 64.609C626.706 63.1378 627.968 61.041 629.999 58.6468C632.03 56.2712 634.919 53.626 638.857 51.4827C642.761 49.3456 647.836 47.7257 653.535 48.085C659.181 48.4319 665.32 50.7456 670.265 55.2831C672.684 57.5844 674.783 60.4463 676.107 63.7789C677.424 67.1116 677.979 70.7324 678.59 74.3407C679.204 77.946 679.899 81.6441 681.619 84.9675C683.359 88.2661 686.053 91.1652 689.386 93.1661C692.71 95.266 696.632 96.0745 700.74 96.3377C704.79 96.6599 709.341 96.9603 713.096 99.5682C714.959 100.816 716.42 102.774 716.996 104.951C717.592 107.132 717.43 109.371 717.037 111.44C716.231 115.606 714.532 119.357 714.535 123.238C714.513 125.143 714.904 127.029 715.933 128.509C716.966 129.99 718.565 130.972 720.302 131.653C722.032 132.362 723.889 132.842 725.684 133.583C727.467 134.295 729.256 135.348 730.459 136.943C732.905 140.18 732.834 144.346 731.956 147.753C731.036 151.274 729.12 154.192 727.43 156.97C725.712 159.742 724.112 162.443 723.275 165.287C722.441 168.13 722.258 171.026 722.556 173.73C723.17 179.162 725.703 183.743 728.856 186.701C732.015 189.709 735.584 191.264 738.542 192.032C744.588 193.518 748.082 192.255 748.07 192.496Z"/><path fill="#263238" d="M535.458 168.629C535.672 168.613 534.23 170.849 535.594 174.653C536.276 176.443 537.802 178.614 540.437 179.463C543.001 180.311 546.554 179.602 548.88 177.069C550.046 175.827 550.712 174.101 550.818 172.221C550.923 170.344 550.532 168.365 549.878 166.395C548.613 162.505 546.074 158.284 546.406 153.195C546.635 148.258 549.091 143.187 553.292 139.805C555.369 138.108 557.812 136.795 560.445 135.952C563.083 135.076 565.905 134.859 568.649 134.691C571.399 134.521 574.109 134.422 576.617 133.781C579.11 133.158 581.367 131.854 582.787 129.866C584.21 127.881 584.821 125.424 584.964 123.024C585.112 120.602 584.796 118.229 584.297 115.922C583.308 111.326 581.882 106.865 582.096 102.458C582.282 98.0784 583.91 94.1758 586.108 91.221C588.309 88.2104 591.177 86.3521 593.564 84.8034C595.983 83.2579 598.045 81.923 599.533 80.5973C602.59 77.9677 603.099 75.6044 603.266 75.7067C603.288 75.7129 603.257 75.8523 603.173 76.1124C603.077 76.3664 602.984 76.7753 602.724 77.246C602.28 78.2248 601.387 79.5845 599.89 80.9814C598.414 82.4061 596.355 83.8278 593.983 85.4291C591.63 87.0397 588.92 88.8856 586.88 91.7816C584.833 94.6311 583.342 98.3695 583.215 102.498C583.054 106.649 584.461 110.976 585.512 115.662C586.04 118.006 586.396 120.524 586.251 123.098C586.108 125.654 585.475 128.361 583.86 130.634C582.251 132.92 579.646 134.407 576.955 135.076C574.248 135.769 571.47 135.862 568.732 136.033C565.992 136.2 563.325 136.407 560.851 137.225C558.374 138.012 556.076 139.241 554.126 140.824C550.191 143.965 547.894 148.673 547.643 153.26C547.28 157.915 549.633 161.963 550.938 166.052C551.596 168.108 551.999 170.224 551.853 172.289C551.723 174.343 550.923 176.331 549.58 177.71C546.917 180.494 543.032 181.173 540.201 180.172C537.293 179.144 535.752 176.74 535.104 174.826C534.428 172.85 534.593 171.174 534.834 170.137C535.113 169.093 535.458 168.629 535.458 168.629Z"/><path fill="#0DCB98" d="M575.076 236.843C552.653 240.758 532.295 257.985 522.02 284.625C512.715 308.744 501.876 331.577 502.955 331.524L555.766 358.802L559.552 350.83L566.742 438.585L544.468 491.348C544.468 491.348 594.609 519.666 636.045 519.951C674.811 520.218 746.042 499.899 746.042 499.899L727.411 447.8L741.491 358.601L741.633 365.059L791 355.448C791 355.448 783.884 300.424 772.211 272.636C761.74 247.715 721.455 237.02 721.455 237.02L687.991 228.326C687.991 228.326 681.154 248.328 651.65 246.696C622.148 245.063 624.452 226.901 624.452 226.901L575.076 236.843Z"/><path fill="#263238" d="M750.442 293.288C750.423 293.285 750.383 293.508 750.324 293.933C750.265 294.416 750.191 295.032 750.098 295.791C749.893 297.476 749.608 299.79 749.264 302.617C748.541 308.378 747.459 316.329 746.204 325.104C744.929 333.844 743.776 341.755 742.929 347.565C742.52 350.387 742.185 352.694 741.94 354.373C741.838 355.132 741.757 355.745 741.692 356.228C741.643 356.653 741.624 356.879 741.643 356.882C741.661 356.885 741.717 356.665 741.801 356.247C741.894 355.77 742.009 355.16 742.151 354.41C742.44 352.738 742.833 350.44 743.314 347.627C744.256 341.894 745.497 333.962 746.749 325.184C748.005 316.41 749.025 308.447 749.651 302.667C749.971 299.78 750.185 297.436 750.312 295.816C750.361 295.054 750.405 294.434 750.436 293.948C750.458 293.514 750.461 293.291 750.442 293.288Z"/><path fill="#263238" d="M560.671 291.241C560.653 291.238 560.615 291.476 560.566 291.932C560.516 292.443 560.451 293.103 560.37 293.92C560.209 295.648 560.023 298.154 559.837 301.252C559.462 307.446 559.167 316.022 559.273 325.497C559.387 334.975 559.884 343.542 560.401 349.727C560.659 352.821 560.904 355.321 561.105 357.043C561.204 357.858 561.285 358.517 561.347 359.028C561.409 359.481 561.449 359.719 561.468 359.716C561.486 359.713 561.483 359.474 561.459 359.016C561.424 358.502 561.378 357.842 561.322 357.024C561.192 355.228 561.012 352.741 560.795 349.699C560.377 343.514 559.942 334.956 559.828 325.494C559.722 316.035 559.955 307.471 560.228 301.276C560.377 298.229 560.497 295.741 560.584 293.939C560.622 293.118 560.652 292.455 560.674 291.944C560.693 291.483 560.69 291.244 560.671 291.241Z"/><path fill="#E0E0E0" d="M658.542 419.153C654.078 418.896 649.675 420.448 646.463 423.557C641.372 428.485 632.417 435.321 622.381 434.745C606.822 433.85 596.668 420.791 597.682 403.177C598.696 385.563 610.289 373.756 625.844 374.651C635.88 375.227 643.988 383.048 648.481 388.527C651.315 391.983 655.513 394.031 659.975 394.288C668.926 394.802 676.6 387.973 677.114 379.028L680.051 275.81L518.079 269.888L407.39 265.973L403.66 364.065C403.146 373.006 411.52 379.734 420.471 380.251C424.936 380.508 429.339 378.956 432.551 375.85C437.642 370.922 446.599 364.083 456.633 364.662C472.188 365.557 482.345 378.616 481.328 396.227C480.312 413.838 468.725 425.648 453.166 424.753C443.13 424.177 435.022 416.356 430.53 410.877C427.696 407.42 423.501 405.373 419.036 405.119C410.085 404.605 402.411 411.435 401.893 420.376L397.118 535.887L560.045 542.072L655.631 545.702L667.397 546.148L673.815 436.275C674.33 427.333 667.494 419.667 658.542 419.153Z"/><path fill="#263238" d="M658.542 419.153C658.542 419.153 659.327 419.128 660.837 419.401C662.334 419.667 664.607 420.308 667.1 422.043C669.562 423.746 672.253 426.717 673.459 431.065C674.104 433.212 674.141 435.699 673.924 438.226C673.784 440.778 673.636 443.501 673.478 446.391C672.178 469.543 670.278 503.359 667.872 546.173L667.847 546.634L667.382 546.616C598.966 544.082 505.671 540.632 397.093 536.612L396.362 536.584L396.393 535.853C397.317 513.255 398.268 489.907 399.251 465.91C399.741 453.911 400.24 441.751 400.746 429.439C400.876 426.357 401.006 423.269 401.136 420.172C401.357 416.917 402.519 413.748 404.482 411.125C408.351 405.804 415.545 403.168 422.006 404.754C425.224 405.494 428.251 407.191 430.511 409.65C432.591 412.138 434.641 414.411 437.034 416.474C441.71 420.565 447.483 423.793 453.752 423.957C460.016 424.282 466.365 422.111 471.032 417.874C475.769 413.677 478.69 407.653 479.865 401.368C480.51 398.225 480.671 394.972 480.516 391.76C480.37 388.542 479.791 385.334 478.687 382.308C476.566 376.249 472.259 370.882 466.44 368.029C460.657 365.155 453.684 364.585 447.579 366.889C444.503 367.998 441.614 369.636 438.92 371.557C437.58 372.529 436.281 373.564 435.031 374.66C433.785 375.713 432.65 377.008 431.149 378.049C428.66 379.789 425.699 380.827 422.682 381.035C419.653 381.258 416.664 380.651 413.883 379.576C408.42 377.405 403.53 372.536 402.941 366.353C402.73 363.268 403.065 360.589 403.102 357.7L403.428 349.197C403.645 343.539 403.859 337.899 404.073 332.28C404.932 309.809 405.778 287.67 406.609 265.942L406.64 265.153L407.431 265.18C507.826 268.851 600.355 272.236 680.088 275.151L680.742 275.175L680.723 275.829C680.057 298.513 679.421 320.207 678.817 340.801C678.513 351.096 678.218 361.119 677.93 370.851C677.859 373.282 677.787 375.698 677.716 378.095C677.676 380.514 677.155 383.023 676.11 385.216C674.054 389.667 669.974 392.962 665.422 394.217C660.858 395.499 655.885 394.725 652.019 392.287C650.062 391.126 648.462 389.351 647.142 387.703C645.731 386.074 644.246 384.541 642.677 383.128C639.552 380.301 636.054 377.965 632.278 376.537C628.52 375.029 624.455 374.84 620.613 375.317C612.834 376.262 606.342 381.227 602.761 387.328C599.052 393.452 597.89 400.455 598.045 406.878C598.271 413.315 600.057 419.419 603.434 424.071C606.705 428.801 611.436 431.908 616.204 433.339C620.989 434.838 625.795 434.794 629.859 433.617C633.949 432.456 637.35 430.501 640.184 428.535C643.043 426.565 645.256 424.465 647.235 422.681C649.306 420.98 651.43 420.101 653.163 419.633C654.905 419.156 656.282 419.097 657.19 419.082C658.083 419.079 658.542 419.153 658.542 419.153C658.558 419.258 656.654 418.893 653.197 419.831C651.495 420.324 649.417 421.222 647.408 422.916C645.486 424.697 643.25 426.859 640.395 428.863C637.555 430.87 634.132 432.88 629.974 434.091C625.835 435.324 620.905 435.398 616.018 433.899C611.129 432.465 606.249 429.297 602.869 424.465C599.381 419.707 597.53 413.469 597.273 406.909C597.09 400.371 598.237 393.229 602.026 386.907C605.678 380.613 612.41 375.419 620.471 374.419C624.427 373.908 628.678 374.097 632.597 375.652C636.522 377.123 640.122 379.517 643.325 382.397C644.931 383.838 646.453 385.396 647.892 387.05C649.29 388.775 650.679 390.299 652.549 391.423C656.177 393.699 660.858 394.412 665.122 393.201C669.376 392.014 673.192 388.92 675.099 384.758C677.161 380.626 676.466 375.651 676.783 370.81C677.049 361.079 677.322 351.059 677.604 340.764C678.172 320.173 678.767 298.482 679.393 275.801L680.029 276.476C600.293 273.639 507.76 270.347 407.362 266.772L408.181 266.01C407.356 287.741 406.519 309.884 405.669 332.361C405.456 337.979 405.242 343.619 405.028 349.278L404.705 357.783C404.662 360.571 404.339 363.588 404.538 366.189C405.037 371.625 409.421 376.073 414.481 378.089C417.036 379.077 419.833 379.641 422.561 379.433C425.296 379.247 427.972 378.306 430.216 376.739C431.515 375.856 432.632 374.592 433.959 373.462C435.245 372.331 436.585 371.263 437.974 370.256C440.761 368.264 443.775 366.552 447.027 365.381C453.542 362.934 461.017 363.526 467.153 366.598C473.379 369.649 477.974 375.398 480.197 381.781C481.363 384.971 481.964 388.332 482.116 391.686C482.277 395.037 482.11 398.404 481.437 401.684C480.212 408.235 477.146 414.6 472.098 419.076C467.128 423.598 460.304 425.911 453.69 425.561C446.922 425.372 440.82 421.91 435.993 417.682C433.549 415.582 431.329 413.11 429.351 410.735C427.314 408.517 424.576 406.974 421.653 406.299C415.774 404.856 409.26 407.241 405.735 412.076C403.952 414.454 402.894 417.338 402.693 420.277C402.56 423.371 402.429 426.453 402.296 429.529C401.781 441.837 401.276 453.997 400.777 465.993C399.772 489.988 398.799 513.329 397.853 535.927L397.146 535.159C505.717 539.384 599.006 543.014 667.416 545.674L666.926 546.12C669.521 503.319 671.571 469.509 672.972 446.363C673.152 443.476 673.319 440.754 673.478 438.201C673.713 435.643 673.695 433.289 673.084 431.167C671.946 426.912 669.345 423.969 666.945 422.256C664.514 420.513 662.285 419.834 660.806 419.531C659.32 419.218 658.536 419.202 658.542 419.153Z"/><path fill="#FFBF9D" d="M427.668 519.381C427.668 519.381 418.775 521.336 423.175 540.019C425.931 551.723 433.177 544.987 433.177 544.987C433.177 544.987 440.039 551.166 444.938 542.859L445.948 544.02C445.948 544.02 451.349 553.117 459.181 544.386C459.181 544.386 464.821 546.981 468.604 542.626C472.387 538.269 466.232 528.49 466.232 528.49C466.232 528.49 464.973 514.128 461.116 513.583C457.259 513.041 455.929 516.005 455.445 516.857C454.962 517.709 454.943 526.979 454.943 526.979C454.943 526.979 453.917 514.423 451.359 513.456C446.823 511.743 442.37 512.586 444.011 527.756C444.011 527.756 442.978 516.464 440.504 515.327C437.664 514.02 434.498 516.058 432.889 520.258C431.28 524.461 431.832 528.078 431.832 528.078C431.832 528.078 433.252 517.349 427.668 519.381Z"/><path fill="#FF9A6C" d="M433.205 544.407C433.593 544.339 433.09 539.78 432.824 534.152C432.539 528.524 432.591 523.937 432.197 523.906C431.835 523.872 431.159 528.49 431.45 534.217C431.723 539.944 432.845 544.476 433.205 544.407Z"/><path fill="#FF9A6C" d="M445.399 543.042C445.784 542.955 445.086 538.681 444.64 533.39C444.175 528.097 444.131 523.77 443.738 523.749C443.375 523.721 442.795 528.103 443.273 533.508C443.728 538.913 445.046 543.131 445.399 543.042Z"/><path fill="#FF9A6C" d="M459.848 544.578C460.208 544.376 458.028 540.235 456.729 534.697C455.38 529.169 455.452 524.489 455.039 524.473C454.695 524.421 453.991 529.249 455.393 535.016C456.754 540.79 459.566 544.782 459.848 544.578Z"/><path fill="#FFBF9D" d="M788.687 355.894L742.157 364.724L743.822 405.943L697.928 461.267L707.949 488.554C717.142 482.012 768.887 446.861 786.768 428.609C794.423 420.798 788.687 355.894 788.687 355.894Z"/><path fill="#FF9A6C" d="M771.011 409.427C770.949 409.545 769.65 408.223 767.296 406.708C766.127 405.937 764.67 405.196 763.018 404.546C761.356 403.942 759.489 403.453 757.502 403.242C755.514 403.062 753.614 403.177 751.899 403.45C750.191 403.769 748.668 404.215 747.422 404.747C744.926 405.785 743.494 406.838 743.444 406.708C743.425 406.665 743.776 406.386 744.427 405.918C744.749 405.677 745.152 405.398 745.639 405.138C746.126 404.868 746.669 404.521 747.304 404.267C748.554 403.666 750.095 403.158 751.831 402.799C753.573 402.486 755.511 402.347 757.539 402.53C759.564 402.747 761.467 403.264 763.154 403.914C764.831 404.611 766.298 405.416 767.467 406.256C768.065 406.634 768.565 407.083 769.014 407.442C769.467 407.795 769.836 408.148 770.127 408.452C770.723 409.043 771.036 409.387 771.011 409.427Z"/><path fill="#FFBF9D" d="M698.607 459.783C698.607 459.783 693.929 452.83 689.324 451.08C684.72 449.33 678.023 449.138 677.006 448.125C675.989 447.112 674.033 443.501 671.459 445.142C668.886 446.784 663.959 454.158 672.963 459.619L679.663 461.84C679.663 461.84 676.628 468.264 674.129 470.363C671.63 472.463 639.39 493.528 639.39 493.528C639.39 493.528 635.605 495.427 636.085 498.738C636.563 502.049 643.195 502.445 643.195 502.445C643.195 502.445 646.18 507.714 651.659 507.5C657.138 507.289 659.64 506.543 659.64 506.543C659.64 506.543 663.506 512.552 670.606 510.176C677.707 507.8 709.661 487.383 709.661 487.383L706.594 461.53L698.607 459.783Z"/><path fill="#FF9A6C" d="M666.594 491.834C666.784 492.072 662.235 495.696 655.727 498.608C649.231 501.55 643.502 502.554 643.449 502.256C643.362 501.91 648.866 500.404 655.234 497.514C661.618 494.662 666.393 491.537 666.594 491.834Z"/><path fill="#FF9A6C" d="M675.515 498.856C675.741 499.057 672.612 502.43 667.565 504.84C662.533 507.286 657.944 507.636 657.925 507.336C657.86 506.98 662.204 506.122 667.041 503.762C671.899 501.448 675.276 498.583 675.515 498.856Z"/><path fill="#263238" d="M296.18 518.784L80.1357 504.911L60.4101 591.595H301.547C304.927 550.642 296.18 518.784 296.18 518.784Z"/><path fill="#263238" d="M171.087 9.91394C174.33 4.60828 181.185 1.82691 187.181 3.38484C194.725 -1.78144 205.85 -0.768603 212.336 5.67067C217.948 2.85213 225.02 3.22376 230.304 6.6122C235.59 10.0006 238.898 16.2882 238.712 22.5881C245.04 22.0368 251.511 25.9208 254.02 31.7839C256.531 37.6471 254.891 45.0403 250.144 49.2867C256.794 51.9969 260.707 60.1365 258.686 67.062C256.664 73.9876 248.994 78.7234 241.934 77.404L172.578 27.2836C168.479 22.619 167.843 15.2196 171.087 9.91394Z"/><path fill="#EEB291" d="M243.912 79.6122C243.642 47.0597 218.537 20.2031 186.223 17.8863L183.011 17.6571C148.242 17.208 135.018 48.4535 135.499 83.3879L129.27 212.675L180.841 264.391L199.717 229.983L206.216 195.699C206.216 195.699 239.875 192.886 242.69 159.479C244.051 143.339 244.163 109.888 243.912 79.6122Z"/><path fill="#E08155" d="M206.495 195.668C206.495 195.668 185.151 195.429 163.813 179.717C163.813 179.717 171.08 205.356 204.504 204.727L206.495 195.668Z"/><path fill="#263238" d="M232.046 107.705C231.953 110.232 229.746 112.239 227.116 112.193C224.493 112.146 222.435 110.065 222.528 107.538C222.621 105.01 224.828 103 227.451 103.043C230.08 103.093 232.139 105.177 232.046 107.705Z"/><path fill="#263238" d="M235.829 97.1832C235.196 97.7624 231.789 94.8262 226.673 94.4762C221.569 94.0488 217.625 96.4244 217.117 95.7554C216.863 95.4581 217.545 94.374 219.266 93.2961C220.959 92.2214 223.786 91.2613 226.971 91.5029C230.155 91.7506 232.75 93.1196 234.204 94.436C235.689 95.7616 236.142 96.9262 235.829 97.1832Z"/><path fill="#263238" d="M188.04 105.425C187.947 107.953 185.74 109.96 183.11 109.913C180.487 109.867 178.429 107.785 178.522 105.255C178.615 102.727 180.822 100.717 183.448 100.764C186.075 100.81 188.133 102.898 188.04 105.425Z"/><path fill="#263238" d="M186.958 92.9586C186.323 93.5409 182.912 90.6045 177.799 90.2515C172.696 89.824 168.752 92.1997 168.243 91.5307C167.992 91.2334 168.668 90.1524 170.395 89.0746C172.091 87.9998 174.916 87.0396 178.1 87.2812C181.284 87.5259 183.879 88.898 185.333 90.2143C186.812 91.5369 187.265 92.7015 186.958 92.9586Z"/><path fill="#263238" d="M201.062 132.251C201.059 131.957 204.278 131.631 209.477 131.34C210.792 131.3 212.048 131.127 212.333 130.247C212.708 129.321 212.265 127.868 211.741 126.295C210.742 123.033 209.697 119.611 208.597 116.027C204.256 101.417 201.218 89.4432 201.804 89.2728C202.393 89.1025 206.386 100.804 210.724 115.414C211.762 119.016 212.758 122.448 213.7 125.731C214.088 127.258 214.816 129.011 214.007 130.928C213.585 131.882 212.575 132.526 211.722 132.694C210.866 132.892 210.131 132.852 209.483 132.846C204.278 132.749 201.059 132.542 201.062 132.251Z"/><path fill="#263238" d="M185.755 134.725C186.589 134.735 186.202 140.313 190.666 144.615C195.125 148.927 201.087 148.725 201.075 149.506C201.128 149.862 199.68 150.494 197.174 150.385C194.719 150.296 191.197 149.246 188.465 146.616C185.743 143.977 184.729 140.651 184.704 138.349C184.658 136.002 185.377 134.664 185.755 134.725Z"/><path fill="#263238" d="M188.077 78.2867C187.374 79.5751 183.055 78.0636 177.697 77.7694C172.345 77.3512 167.803 78.2742 167.347 76.9052C167.152 76.2548 168.135 75.1026 170.094 74.1022C172.038 73.0987 174.975 72.3584 178.184 72.569C181.393 72.7859 184.155 73.9071 185.885 75.1553C187.637 76.4035 188.394 77.6703 188.077 78.2867Z"/><path fill="#263238" d="M235.683 83.0069C234.793 84.187 231.249 83.0101 227.002 83.0008C222.754 82.8397 219.166 83.8742 218.326 82.6569C217.957 82.0654 218.512 80.8884 220.072 79.7641C221.61 78.6429 224.189 77.7136 227.11 77.7694C230.028 77.8313 232.567 78.8628 234.058 80.046C235.571 81.2353 236.077 82.4339 235.683 83.0069Z"/><path fill="#263238" d="M241.813 64.0453C241.813 64.0453 234.542 42.4758 224.843 36.8697C213.102 30.0804 206.901 43.1231 195.54 39.0347C184.18 34.9463 172.975 28.4389 160.48 36.5941C146.803 45.5205 152.381 52.8703 150.511 67.6505C142.937 127.568 130.78 143.794 129.707 115.237C129.589 112.109 121.193 109.027 120.867 95.8204C120.443 78.6955 121.28 57.9994 125.924 46.2018C129.84 36.2564 136.119 29.6437 147.026 22.6376C164.247 11.5772 186.71 12.9245 201.841 15.5603C216.971 18.1961 245.087 37.9258 241.813 64.0453Z"/><path fill="#EEB291" d="M136.116 114.788C136.277 109.613 132.144 105.221 126.991 105.341C120.743 105.49 113.581 108.535 113.063 121.45C112.146 144.361 135.229 140.542 135.294 139.886C135.341 139.443 135.815 124.381 136.116 114.788Z"/><path fill="#6F4439" d="M130.68 131.071C130.584 130.993 130.271 131.334 129.589 131.619C128.922 131.895 127.788 132.056 126.619 131.563C124.244 130.578 122.371 126.657 122.424 122.522C122.449 120.435 122.963 118.468 123.766 116.851C124.529 115.203 125.654 114.073 126.876 113.906C128.095 113.673 128.922 114.435 129.177 115.092C129.456 115.745 129.294 116.198 129.412 116.241C129.474 116.303 129.918 115.875 129.772 114.921C129.695 114.463 129.45 113.912 128.932 113.45C128.402 112.979 127.608 112.722 126.758 112.781C124.994 112.834 123.348 114.395 122.464 116.17C121.487 117.947 120.861 120.156 120.83 122.501C120.79 127.125 122.969 131.538 126.228 132.622C127.816 133.106 129.174 132.675 129.887 132.161C130.615 131.622 130.755 131.114 130.68 131.071Z"/><path fill="#263238" d="M135.527 70.2213C138.336 72.4607 141.306 74.7743 144.841 75.3814C148.375 75.9915 152.595 74.2292 153.451 70.7293C153.835 69.1559 153.581 67.2819 154.71 66.1266C156.058 64.7483 158.316 65.3741 160.207 65.7117C166.771 66.8918 173.883 62.6763 176.032 56.3299C177.536 58.9874 181.483 59.1608 184.152 57.6896C186.825 56.2184 188.663 53.6291 190.825 51.4734C192.989 49.3177 195.94 47.4624 198.917 48.1066C200.582 48.4659 202.083 49.5872 203.788 49.5562C206.795 49.5035 208.507 46.0934 209.174 43.1448C209.84 40.1993 210.442 36.7458 213.09 35.3086C215.542 33.9768 218.518 35.0608 221.241 35.6648C223.96 36.2688 227.56 35.8754 228.459 33.2241C228.93 31.8335 228.431 30.2972 227.739 29.0056C224.599 23.1487 217.052 20.104 210.749 22.1544C209.065 14.4422 202.458 8.05868 194.719 6.67419C186.98 5.2866 178.577 8.98169 174.333 15.6347C169.84 10.9051 162.985 8.56347 156.551 9.56079C150.118 10.5581 144.276 14.8634 141.399 20.7358C135.97 18.8775 129.509 20.5748 125.673 24.8677C121.841 29.1605 120.861 35.8011 123.289 41.02C119.029 43.0735 115.234 46.9049 114.809 51.6313C114.384 56.3578 118.632 61.4002 123.267 60.4803C121.165 64.0329 122.3 69.1403 125.704 71.454C129.109 73.7677 134.252 72.9252 136.751 69.6421"/><path fill="#455A64" d="M121.608 60.3192C121.534 60.2542 121.05 62.2118 122.709 64.8166C123.534 66.0555 125 67.3873 127.072 67.8736C129.096 68.3661 131.645 68.0409 133.694 66.4458L132.742 66.232C133.725 68.2825 135.068 70.3917 136.875 72.2593C138.038 73.4487 139.353 74.4863 140.835 75.146C142.283 75.8522 143.979 76.0287 145.383 75.9017C148.291 75.7902 150.918 74.412 152.22 72.5877C153.566 70.8098 154.074 69.1032 154.403 67.9634C154.719 66.8112 154.787 66.1515 154.71 66.1298C154.614 66.1019 154.375 66.7151 153.919 67.7961C153.457 68.8616 152.812 70.4629 151.504 71.993C149.113 75.1181 141.966 76.2889 137.809 71.3332C136.128 69.6018 134.829 67.6041 133.862 65.6807L133.508 64.9776L132.91 65.467C131.245 66.8205 129.056 67.186 127.298 66.8298C125.509 66.486 124.173 65.4174 123.338 64.355C121.664 62.1405 121.81 60.2759 121.608 60.3192Z"/><path fill="#455A64" d="M168.352 11.1932C168.333 11.2706 168.935 11.3945 169.918 11.8993C170.879 12.4073 172.28 13.3736 173.235 15.1701L173.474 15.6254L173.821 15.2227C176.156 12.5095 179.985 9.08085 185.467 7.06141C188.189 6.07647 191.311 5.48792 194.567 5.72951C197.81 5.94632 201.134 7.12957 204.002 9.18617C206.231 10.7813 208.06 12.8254 209.347 15.0616C210.6 17.3165 211.288 19.7696 211.353 22.1328L211.375 22.8606L212.079 22.7182C215.567 22.0182 218.999 22.9381 221.452 24.5518C223.941 26.1717 225.433 28.473 226.223 30.4924C227.767 34.6459 226.918 37.3808 227.153 37.3653C227.203 37.3777 227.439 36.7489 227.563 35.5162C227.674 34.2927 227.656 32.4313 226.912 30.2385C226.18 28.0765 224.67 25.5336 222.013 23.7062C219.405 21.8912 215.709 20.8071 211.84 21.5257L212.562 22.1111C212.531 19.5372 211.803 16.8612 210.466 14.4236C209.096 12.0077 207.146 9.81487 204.765 8.11136C201.711 5.91538 198.123 4.6579 194.654 4.45658C191.184 4.23048 187.898 4.89951 185.067 5.98046C179.371 8.19502 175.527 11.8715 173.273 14.7705L173.858 14.8232C172.711 12.8936 171.133 11.9768 170.076 11.5524C168.991 11.1374 168.358 11.1405 168.352 11.1932Z"/><path fill="#263238" d="M99.9822 520.701C99.9636 520.747 100.488 520.992 101.498 521.419C102.661 521.89 104.137 522.485 105.954 523.216C109.823 524.777 115.51 526.818 122.604 529.138C129.691 531.482 138.237 533.939 147.814 536.339C157.407 538.665 168.039 540.892 179.291 542.682C190.558 544.42 201.363 545.556 211.207 546.275C221.061 546.919 229.95 547.195 237.416 547.133C244.879 547.096 250.919 546.891 255.08 546.591C257.033 546.448 258.621 546.334 259.87 546.244C260.965 546.148 261.538 546.074 261.535 546.024C261.532 545.975 260.952 545.95 259.855 545.953C258.602 545.972 257.011 545.996 255.055 546.03C250.891 546.157 244.864 546.204 237.419 546.114C229.975 546.046 221.117 545.665 211.303 544.949C201.496 544.16 190.738 542.989 179.514 541.257C168.302 539.473 157.705 537.296 148.127 535.047C138.568 532.724 130.02 530.377 122.911 528.165C115.798 525.975 110.071 524.086 106.149 522.692C104.295 522.064 102.791 521.556 101.604 521.153C100.559 520.809 100.001 520.657 99.9822 520.701Z"/><path fill="#00454E" d="M243.447 215.088L205.416 208.862C205.416 208.862 203.397 224.77 177.598 225.297C147.873 225.904 127.053 200.493 127.053 200.493C127.053 200.493 61.1418 219.511 48.1661 229.23C35.1904 238.949 77.587 441.986 77.587 441.986L81.4347 502.458C81.4347 502.458 72.7936 513.249 72.7936 523.745C72.7936 534.242 67.5816 539.622 67.5816 539.622C146.8 561.817 232.48 581.649 304.815 560.163C304.815 560.163 303.014 524.489 298.828 514.769C294.642 505.05 295.421 504.158 295.421 504.158L283.558 398.286L272.164 295.292L243.447 215.088Z"/><path fill="#00454E" d="M243.447 215.088C243.447 215.088 262.242 220.815 273.159 232.631C284.073 244.447 308.214 285.551 308.214 285.551L287.195 353.428L256.779 338.729L243.447 215.088Z"/><path fill="#263238" d="M266.803 291.792C267.023 291.758 267.789 295.401 268.821 301.326C269.854 307.248 271.147 315.449 272.421 324.534C273.695 333.618 274.694 341.866 275.28 347.853C275.863 353.84 276.043 357.56 275.829 357.582C275.599 357.607 275.019 353.933 274.148 347.99C273.227 341.56 272.086 333.581 270.824 324.754C269.637 315.92 268.561 307.929 267.693 301.49C266.952 295.528 266.586 291.826 266.803 291.792Z"/><path fill="#0DCB98" d="M160.542 357.557C159.981 366.586 152.198 373.446 143.163 372.886C138.658 372.604 134.429 370.519 131.583 367.016C127.072 361.466 118.92 353.531 108.788 352.902C93.0836 351.926 81.3233 363.795 80.2164 381.577C79.1095 399.358 89.3071 412.59 105.011 413.565C115.141 414.194 124.216 407.331 129.378 402.378C132.637 399.253 137.092 397.707 141.598 397.986C150.636 398.547 157.503 406.321 156.942 415.346L149.957 526.267L397.062 536.776L402.414 420.156C402.975 411.131 410.748 404.617 419.783 405.181C424.288 405.46 427.938 407.69 430.781 411.19C435.292 416.743 441.239 425.23 454.168 424.812C471.853 424.239 481.629 413.919 482.736 396.137C483.843 378.355 473.648 365.124 457.941 364.148C447.812 363.519 438.721 369.94 433.556 374.893C430.3 378.015 425.86 380.006 421.352 379.727C412.314 379.167 403.89 372.334 404.451 363.306L408.671 264.27L163.955 253.863L160.542 357.557Z"/><path fill="#EEB291" d="M41.1744 234.666C41.1744 234.666 25.1695 269.483 23.5634 280.692C22.2674 289.733 12.2527 405.091 11.3628 422.043C10.473 438.994 4.80519 474.344 26.2732 486.562C41.0442 494.968 115.618 507.011 111.2 506.354C118.762 491.63 108.484 482.208 122.061 469.893L71.3797 433.366L81.3666 310.441L41.1744 234.666Z"/><path fill="#6F4439" d="M43.2672 450.615C42.9324 450.51 46.7864 443.476 54.8849 438.276C62.9308 432.989 70.9271 432.323 70.8868 432.673C71.0077 433.128 63.4114 434.41 55.6817 439.505C47.8901 444.495 43.6362 450.906 43.2672 450.615Z"/><path fill="#EEB291" d="M127.977 469.973C127.977 469.973 136.277 462.586 142.766 461.855C149.253 461.124 157.916 463.082 159.556 462.119C161.196 461.155 164.898 457.163 167.66 460.118C170.423 463.073 174.314 474.164 160.951 478.206L151.615 478.85C151.615 478.85 153.392 488.099 155.906 491.617C158.424 495.136 192.858 532.799 192.858 532.799C192.858 532.799 197.091 536.481 195.385 540.576C193.68 544.668 185.036 542.992 185.036 542.992C185.036 542.992 179.464 548.772 172.5 546.696C165.537 544.621 162.569 542.837 162.569 542.837C162.569 542.837 155.624 549.28 147.293 543.89C138.962 538.501 104.679 501.764 104.679 501.764L117.15 469.586L127.977 469.973Z"/><path fill="#6F4439" d="M158.774 518.796C159.134 518.48 164.318 524.51 171.555 530.978C178.853 537.38 185.467 541.796 185.197 542.193C185.088 542.354 183.327 541.422 180.621 539.678C177.923 537.928 174.28 535.342 170.584 532.074C166.777 528.673 163.717 525.313 161.825 523.033C159.766 520.558 158.629 518.923 158.774 518.796Z"/><path fill="#6F4439" d="M143.61 527.787C143.96 527.447 147.774 531.442 153.265 535.27C158.917 539.021 163.053 542.803 162.774 543.11C162.507 543.404 158.092 540.232 152.421 536.469C146.744 532.501 143.362 527.989 143.61 527.787Z"/><path fill="#00454E" d="M0.616455 356.981L75.95 371.34L97.88 301.524L79.9621 218.548C79.9621 218.548 39.8629 220.013 26.6857 252.757C13.5084 285.502 0.616455 356.981 0.616455 356.981Z"/><path fill="#AE7461" d="M378.645 277.093C378.645 277.093 387.538 275.138 383.138 256.455C380.381 244.751 373.136 251.487 373.136 251.487C373.136 251.487 366.274 245.308 361.375 253.615L360.365 252.454C360.365 252.454 354.963 243.357 347.131 252.088C347.131 252.088 341.492 249.493 337.709 253.85C333.929 258.208 340.081 267.986 340.081 267.986C340.081 267.986 341.34 282.349 345.197 282.894C349.054 283.436 350.384 280.472 350.867 279.62C351.351 278.768 351.373 269.498 351.373 269.498C351.373 269.498 352.399 282.054 354.957 283.021C359.493 284.734 363.946 283.891 362.305 268.721C362.305 268.721 363.338 280.013 365.812 281.15C368.652 282.457 371.818 280.419 373.427 276.219C375.036 272.016 374.481 268.398 374.481 268.398C374.481 268.398 373.061 279.124 378.645 277.093Z"/><path fill="#6F4439" d="M373.108 252.066C372.72 252.135 373.222 256.694 373.489 262.322C373.774 267.949 373.722 272.536 374.115 272.567C374.478 272.601 375.151 267.983 374.863 262.257C374.59 256.53 373.467 251.998 373.108 252.066Z"/><path fill="#6F4439" d="M360.913 253.432C360.529 253.519 361.227 257.793 361.673 263.084C362.138 268.377 362.181 272.704 362.575 272.725C362.938 272.753 363.518 268.371 363.04 262.966C362.585 257.561 361.267 253.343 360.913 253.432Z"/><path fill="#6F4439" d="M346.465 251.896C346.105 252.098 348.285 256.239 349.584 261.777C350.933 267.305 350.861 271.985 351.274 272.001C351.618 272.053 352.322 267.225 350.92 261.457C349.559 255.684 346.747 251.692 346.465 251.896Z"/><path fill="#263238" d="M78.3684 287.32C78.48 287.32 78.573 288.522 78.6474 290.69C78.7249 292.858 78.7653 295.998 78.7715 299.876C78.7808 307.632 78.5575 318.349 78.1327 330.168C77.7048 341.789 77.3204 352.295 77.0228 360.431C76.8709 364.024 76.7406 367.084 76.6352 369.602C76.5143 371.767 76.3965 372.966 76.2848 372.966C76.1732 372.966 76.0802 371.767 76.0058 369.596C75.9283 367.428 75.888 364.287 75.8817 360.41C75.8724 352.654 76.0957 341.937 76.5204 330.112C76.9483 318.494 77.3328 307.991 77.6304 299.855C77.7824 296.262 77.9126 293.202 78.018 290.683C78.1358 288.518 78.2568 287.32 78.3684 287.32Z"/></svg>